<?xml version="1.0" encoding="utf-8"?>
<!-- Generator: Adobe Illustrator 18.1.0, SVG Export Plug-In . SVG Version: 6.00 Build 0)  -->
<svg version="1.1" id="Layer_1" xmlns="http://www.w3.org/2000/svg" xmlns:xlink="http://www.w3.org/1999/xlink" x="0px" y="0px"
	 viewBox="0 0 29.6 33" enable-background="new 0 0 29.6 33" xml:space="preserve">
<g>
	<defs>
		<rect id="SVGID_1_" y="0" width="29.6" height="33"/>
	</defs>
	<clipPath id="SVGID_2_">
		<use xlink:href="#SVGID_1_"  overflow="visible"/>
	</clipPath>
	<path clip-path="url(#SVGID_2_)" fill="#0093CF" d="M25.1,33H4.5C2,33,0,31,0,28.5V7.9c0-2.5,1.8-4.5,4.1-4.5h3.6
		c0.3,0,0.5,0.2,0.5,0.5c0,0.3-0.2,0.5-0.5,0.5H4.1C2.4,4.4,1,6,1,7.9v20.6C1,30.4,2.6,32,4.5,32h20.6c1.9,0,3.5-1.6,3.5-3.5V7.9
		c0-1.9-1.2-3.5-2.6-3.5h-3.1c-0.3,0-0.5-0.2-0.5-0.5c0-0.3,0.2-0.5,0.5-0.5H26c2,0,3.6,2,3.6,4.5v20.6C29.6,31,27.6,33,25.1,33"/>
	<path clip-path="url(#SVGID_2_)" fill="#0093CF" d="M20,4.3h-9.5c-0.3,0-0.5-0.2-0.5-0.5c0-0.3,0.2-0.5,0.5-0.5H20
		c0.3,0,0.5,0.2,0.5,0.5C20.5,4.1,20.3,4.3,20,4.3"/>
	<path clip-path="url(#SVGID_2_)" fill="#0093CF" d="M29.1,11.9H0.5c-0.3,0-0.5-0.2-0.5-0.5c0-0.3,0.2-0.5,0.5-0.5h28.6
		c0.3,0,0.5,0.2,0.5,0.5C29.6,11.7,29.4,11.9,29.1,11.9"/>
	<path clip-path="url(#SVGID_2_)" fill="#0093CF" d="M9,7.6c-1.1,0-1.9-0.9-1.9-1.9V1.9C7.1,0.8,8,0,9,0c1.1,0,1.9,0.9,1.9,1.9v3.8
		C11,6.8,10.1,7.6,9,7.6 M9,1C8.5,1,8.1,1.4,8.1,1.9v3.8c0,0.5,0.4,0.9,0.9,0.9s0.9-0.4,0.9-0.9V1.9C10,1.4,9.5,1,9,1"/>
	<path clip-path="url(#SVGID_2_)" fill="#0093CF" d="M21.4,7.6c-1.1,0-1.9-0.9-1.9-1.9V1.9c0-1.1,0.9-1.9,1.9-1.9s1.9,0.9,1.9,1.9
		v3.8C23.3,6.8,22.5,7.6,21.4,7.6 M21.4,1c-0.5,0-0.9,0.4-0.9,0.9v3.8c0,0.5,0.4,0.9,0.9,0.9s0.9-0.4,0.9-0.9V1.9
		C22.3,1.4,21.9,1,21.4,1"/>
	<path clip-path="url(#SVGID_2_)" fill="#0093CF" d="M7.1,29.8c-0.3,0-0.5-0.2-0.5-0.5v-15c0-0.3,0.2-0.5,0.5-0.5
		c0.3,0,0.5,0.2,0.5,0.5v15C7.6,29.6,7.4,29.8,7.1,29.8"/>
	<path clip-path="url(#SVGID_2_)" fill="#0093CF" d="M14.8,29.8c-0.3,0-0.5-0.2-0.5-0.5v-15c0-0.3,0.2-0.5,0.5-0.5
		c0.3,0,0.5,0.2,0.5,0.5v15C15.3,29.6,15.1,29.8,14.8,29.8"/>
	<path clip-path="url(#SVGID_2_)" fill="#0093CF" d="M22.5,29.8c-0.3,0-0.5-0.2-0.5-0.5v-15c0-0.3,0.2-0.5,0.5-0.5
		c0.3,0,0.5,0.2,0.5,0.5v15C23,29.6,22.7,29.8,22.5,29.8"/>
	<path clip-path="url(#SVGID_2_)" fill="#0093CF" d="M26.5,26H3c-0.3,0-0.5-0.2-0.5-0.5S2.7,25,3,25h23.5c0.3,0,0.5,0.2,0.5,0.5
		S26.8,26,26.5,26"/>
	<path clip-path="url(#SVGID_2_)" fill="#0093CF" d="M26.5,18.7H3c-0.3,0-0.5-0.2-0.5-0.5c0-0.3,0.2-0.5,0.5-0.5h23.5
		c0.3,0,0.5,0.2,0.5,0.5C27,18.5,26.8,18.7,26.5,18.7"/>
</g>
</svg>
