<?xml version="1.0" encoding="utf-8"?>
<!-- Generator: Adobe Illustrator 18.1.0, SVG Export Plug-In . SVG Version: 6.00 Build 0)  -->
<svg version="1.1" id="Layer_1" xmlns="http://www.w3.org/2000/svg" xmlns:xlink="http://www.w3.org/1999/xlink" x="0px" y="0px"
	 viewBox="0 0 39.8 26.9" enable-background="new 0 0 39.8 26.9" xml:space="preserve">
<g>
	<defs>
		<rect id="SVGID_1_" y="0" width="39.8" height="26.9"/>
	</defs>
	<clipPath id="SVGID_2_">
		<use xlink:href="#SVGID_1_"  overflow="visible"/>
	</clipPath>
	<path clip-path="url(#SVGID_2_)" fill="#0093CF" d="M19.9,26.9c-13.1,0-19.7-13-19.8-13.2c0-0.1-0.1-0.1-0.1-0.2v-0.1
		c0-0.1,0-0.2,0.1-0.2C0.2,13.1,6.8,0,19.9,0s19.7,13,19.8,13.2c0,0.1,0.1,0.1,0.1,0.2v0.1c0,0.1,0,0.2-0.1,0.2
		C39.6,13.9,33,26.9,19.9,26.9 M1.2,13.5C2,14.9,8.3,26,20,26s18-11,18.8-12.5C38,12.1,31.7,1,20,1C8.2,1,1.9,12,1.2,13.5"/>
	<path clip-path="url(#SVGID_2_)" fill="#0093CF" d="M19.9,20c-3.5,0-6.4-2.9-6.4-6.4s2.9-6.4,6.4-6.4s6.4,2.9,6.4,6.4
		C26.4,17.1,23.5,20,19.9,20 M19.9,8.1c-3,0-5.4,2.4-5.4,5.4s2.4,5.4,5.4,5.4s5.4-2.4,5.4-5.4C25.4,10.5,22.9,8.1,19.9,8.1"/>
	<path clip-path="url(#SVGID_2_)" fill="#0093CF" d="M19.9,11.4c1.2,0,2.1,0.9,2.1,2.1s-0.9,2.1-2.1,2.1c-1.2,0-2.1-0.9-2.1-2.1
		S18.7,11.4,19.9,11.4"/>
</g>
</svg>
