<?xml version="1.0" encoding="utf-8"?>
<!-- Generator: Adobe Illustrator 18.1.0, SVG Export Plug-In . SVG Version: 6.00 Build 0)  -->
<svg version="1.1" id="Layer_1" xmlns="http://www.w3.org/2000/svg" xmlns:xlink="http://www.w3.org/1999/xlink" x="0px" y="0px"
	 viewBox="0 0 32.8 32.8" enable-background="new 0 0 32.8 32.8" xml:space="preserve">
<g>
	<defs>
		<rect id="SVGID_1_" y="0" width="32.8" height="32.8"/>
	</defs>
	<clipPath id="SVGID_2_">
		<use xlink:href="#SVGID_1_"  overflow="visible"/>
	</clipPath>
	<path clip-path="url(#SVGID_2_)" fill="#0093CF" d="M22.8,26.6c-0.1,0-0.2,0-0.3-0.1l-6.1-4.4l-6.1,4.4c-0.2,0.1-0.4,0.1-0.6,0
		c-0.2-0.1-0.2-0.4-0.2-0.6l2.3-7.1l-6.1-4.4c-0.2-0.1-0.2-0.4-0.2-0.6c0-0.2,0.3-0.3,0.5-0.3h7.5l2.3-7.1c0.1-0.2,0.3-0.3,0.5-0.3
		c0.2,0,0.4,0.1,0.5,0.3l2.3,7.1h7.5c0.2,0,0.4,0.1,0.5,0.3c0.1,0.2,0,0.4-0.2,0.6l-6.1,4.4l2.3,7.1c0.1,0.2,0,0.4-0.2,0.6
		C23,26.6,22.9,26.6,22.8,26.6 M16.4,21c0.1,0,0.2,0,0.3,0.1l5.1,3.7l-2-6c-0.1-0.2,0-0.4,0.2-0.6l5.1-3.7h-6.3
		c-0.2,0-0.4-0.1-0.5-0.3l-2-6l-2,6c-0.1,0.2-0.3,0.3-0.5,0.3H7.7l5.1,3.7c0.2,0.1,0.2,0.4,0.2,0.6l-2,6l5.1-3.7
		C16.2,21.1,16.3,21,16.4,21"/>
	<path clip-path="url(#SVGID_2_)" fill="#0093CF" d="M16.4,32.8C7.3,32.8,0,25.4,0,16.4C0,7.3,7.4,0,16.4,0
		c9.1,0,16.4,7.4,16.4,16.4C32.9,25.4,25.5,32.8,16.4,32.8 M16.4,0.9C7.9,0.9,1,7.8,1,16.3s6.9,15.4,15.4,15.4s15.4-6.9,15.4-15.4
		C31.9,7.8,24.9,0.9,16.4,0.9"/>
</g>
</svg>
